<?xml version="1.0" standalone="no"?>
<!DOCTYPE svg PUBLIC "-//W3C//DTD SVG 20010904//EN"
 "http://www.w3.org/TR/2001/REC-SVG-20010904/DTD/svg10.dtd">
<svg version="1.0" xmlns="http://www.w3.org/2000/svg"
 width="574.000000pt" height="574.000000pt" viewBox="0 0 574.000000 574.000000"
 preserveAspectRatio="xMidYMid meet">
<metadata>
Created by potrace 1.14, written by Peter Selinger 2001-2017
</metadata>
<g transform="translate(0.000000,574.000000) scale(0.100000,-0.100000)"
fill="#000000" stroke="none">
<path d="M1927 4938 c-80 -17 -164 -82 -200 -153 -8 -16 -62 -147 -120 -290
-58 -143 -135 -334 -172 -425 -489 -1204 -450 -1093 -450 -1280 0 -103 5 -149
19 -195 15 -51 271 -700 311 -790 7 -16 37 -88 65 -160 155 -389 325 -806 345
-845 103 -201 380 -221 504 -36 15 23 65 136 111 253 47 116 88 209 92 205 3
-4 45 -105 93 -224 68 -170 95 -227 126 -262 87 -98 229 -128 343 -72 91 44
122 90 206 298 40 100 82 203 92 228 l19 44 85 -209 c47 -116 89 -219 94 -230
18 -43 83 -105 136 -130 56 -26 134 -35 195 -22 68 14 151 76 184 137 7 14 65
154 128 310 63 157 160 395 215 530 54 135 147 364 206 510 59 146 111 274
115 285 5 11 14 34 21 50 60 143 83 305 61 445 -10 63 -64 216 -136 385 -7 17
-63 156 -125 310 -61 154 -118 294 -125 310 -7 17 -63 156 -125 310 -61 154
-115 289 -120 300 -5 11 -32 77 -61 148 -38 94 -63 140 -95 176 -137 153 -379
117 -475 -70 -11 -22 -54 -125 -95 -227 -42 -102 -78 -190 -81 -195 -3 -4 -45
93 -95 217 -99 248 -129 295 -216 337 -59 29 -63 30 -140 31 -79 0 -155 -35
-210 -98 -35 -39 -114 -213 -213 -471 -10 -26 -16 -14 -94 180 -46 114 -95
227 -109 251 -60 102 -191 159 -309 134z m79 -256 c7 -4 62 -133 124 -287 62
-154 118 -293 125 -310 37 -89 45 -57 -105 -427 -76 -189 -157 -388 -180 -443
-57 -139 -87 -231 -101 -311 -13 -75 -8 -210 12 -289 6 -27 101 -273 210 -545
l198 -495 -75 -185 c-41 -102 -103 -254 -137 -338 -63 -155 -82 -181 -113
-150 -7 7 -81 182 -164 388 -83 206 -155 384 -160 395 -42 90 -383 958 -393
1003 -17 72 -14 163 8 237 14 50 78 210 362 910 61 149 126 311 275 680 74
182 79 190 114 167z m893 -9 c5 -10 59 -144 121 -298 61 -154 116 -289 121
-300 33 -76 38 -58 -96 -389 -69 -171 -130 -320 -135 -331 -5 -11 -16 -38 -25
-59 -8 -22 -17 -37 -19 -35 -2 2 -70 169 -150 370 -148 370 -155 393 -126 434
4 6 17 37 30 70 13 33 31 78 40 100 10 22 52 127 95 234 43 106 85 199 93 207
18 19 39 18 51 -3z m878 5 c5 -7 63 -146 128 -308 64 -162 123 -308 131 -325
7 -16 83 -205 169 -420 87 -214 163 -403 170 -420 111 -263 133 -337 129 -438
-4 -81 -23 -136 -162 -477 -54 -135 -127 -315 -161 -400 -35 -85 -68 -168 -76
-185 -12 -27 -148 -363 -272 -670 -27 -66 -52 -126 -56 -132 -11 -17 -32 -16
-50 1 -7 8 -73 163 -146 345 l-133 330 82 203 c45 112 88 217 95 233 42 94
224 556 231 585 4 19 9 42 11 50 2 8 6 62 8 120 5 134 -12 206 -94 410 -35 85
-110 272 -167 415 -58 143 -109 269 -113 280 -46 107 -52 128 -43 153 52 139
265 648 275 654 18 11 33 10 44 -4z m-1192 -1408 c197 -488 197 -479 55 -826
-45 -110 -108 -266 -142 -349 -33 -82 -64 -154 -68 -158 -12 -13 -300 718
-309 786 -10 77 -3 155 23 231 19 55 68 179 76 191 3 6 51 123 105 261 55 138
103 246 106 240 4 -6 73 -175 154 -376z m764 292 c19 -48 42 -105 51 -127 58
-129 204 -507 212 -545 14 -71 10 -171 -10 -236 -17 -53 -137 -357 -182 -459
-10 -22 -37 -90 -61 -152 -24 -62 -46 -113 -49 -113 -3 0 -13 21 -24 48 -10
26 -24 61 -31 77 -7 17 -66 163 -131 325 l-118 295 -2 100 c-2 81 2 113 20
170 21 62 170 436 215 540 10 22 29 68 42 103 13 34 26 62 29 62 3 0 20 -39
39 -88z m-359 -1532 c61 -151 127 -315 147 -363 l36 -88 -51 -127 c-221 -551
-225 -562 -252 -562 -25 0 -33 16 -189 407 l-114 282 113 278 c62 153 118 292
125 308 7 17 24 58 36 92 13 34 27 59 31 55 4 -4 57 -131 118 -282z"/>
</g>
</svg>
